{"title":"Itha Ivide Vare - 1977 Malayalam I.V Sasi Classic - New","uid":7056137,"size":2013187311,"categoryP":"video","categoryS":"movies","magnet":"?xt=urn:btih:6d22b4ee50679d66dac484793a632c1d93d9b37e&amp;dn=Itha+Ivide+Vare+-+1977+Malayalam+I.V+Sasi+Classic+-+New&amp;tr=udp%3A%2F%2Ftracker.openbittorrent.com%3A80&amp;tr=udp%3A%2F%2Fopen.demonii.com%3A1337&amp;tr=udp%3A%2F%2Ftracker.coppersurfer.tk%3A6969&amp;tr=udp%3A%2F%2Fexodus.desync.com%3A6969","seeders":0,"leechers":0,"uploader":"joshea","files":-1,"time":1330123407,"description":"Itha Ivide Vare is a 1977 Malayalam classic directed by I.V. Sasi. The movie stars Madhu, M.G. Soman, Adoor Bhasi, Sharada, Jayabharati and Jayan. The plot is about seeking the revenge. Vishwanathan's childhood is ruined because of his father's illegitimate relationship with his mother's sister. Things go wrong and his father and mother are both killed. He returns back to his village years later to seek revenge for his parents' murder. The movie boasts of some superflous performances by Soman, Madhu, Jayan and their likes. I.V. Sasi creates a poetic narrative style that enthralls the viewers\n\nUnfortunately I could not get English subtitles for it. This is a VCD rip.\n\nI would personally rate the Audio &amp; Video quality at 8/10. \n\n\nGeneral\n\nComplete name                            : Itha Ivide Vare.avi\nFormat                                   : AVI\nFormat/Info                              : Audio Video Interleave\nFormat profile                           : OpenDML\nFile size                                : 1.87 GiB\nDuration                                 : 2h 9mn\nOverall bit rate                         : 2 075 Kbps\nWriting application                      : Lavf53.24.0\n\nVideo\n\nID                                       : 0\nFormat                                   : MPEG-4 Visual\nFormat profile                           : Simple@L3\nFormat settings, BVOP                    : No\nFormat settings, QPel                    : No\nFormat settings, GMC                     : No warppoints\nFormat settings, Matrix                  : Default (H.263)\nCodec ID                                 : XVID\nCodec ID/Hint                            : XviD\nDuration                                 : 2h 9mn\nBit rate                                 : 1 869 Kbps\nWidth                                    : 640 pixels\nHeight                                   : 360 pixels\nDisplay aspect ratio                     : 16:9\nFrame rate                               : 29.970 fps\nColor space                              : YUV\nChroma subsampling                       : 4:2:0\nBit depth                                : 8 bits\nScan type                                : Progressive\nCompression mode                         : Lossy\nBits/(Pixel*Frame)                       : 0.271\nStream size                              : 1.69 GiB (90%)\nWriting library                          : XviD 1.2.1 (UTC 2008-12-04)\n\nAudio\n\nID                                       : 1\nFormat                                   : MPEG Audio\nFormat version                           : Version 1\nFormat profile                           : Layer 3\nMode                                     : Joint stereo\nMode extension                           : MS Stereo\nCodec ID                                 : 55\nCodec ID/Hint                            : MP3\nDuration                                 : 2h 9mn\nBit rate mode                            : Constant\nBit rate                                 : 192 Kbps\nChannel(s)                               : 2 channels\nSampling rate                            : 44.1 KHz\nCompression mode                         : Lossy\nStream size                              : 7.82 MiB (0%)\nAlignment                                : Aligned on interleaves\nInterleave, duration                     : 594 ms (17.79 video frames)\n\nEnjoy and Please SEED!!!!!!!!!\n\t\t","torrent":{"xt":"urn:btih:6d22b4ee50679d66dac484793a632c1d93d9b37e","amp;dn":"Itha+Ivide+Vare+-+1977+Malayalam+I.V+Sasi+Classic+-+New","amp;tr":["udp%3A%2F%2Ftracker.openbittorrent.com%3A80","udp%3A%2F%2Fopen.demonii.com%3A1337","udp%3A%2F%2Ftracker.coppersurfer.tk%3A6969","udp%3A%2F%2Fexodus.desync.com%3A6969"],"infoHash":"6d22b4ee50679d66dac484793a632c1d93d9b37e","infoHashBuffer":{"type":"Buffer","data":[109,34,180,238,80,103,157,102,218,196,132,121,58,99,44,29,147,217,179,126]},"announce":[],"urlList":[]}}